<?xml version="1.0" encoding="UTF-8" standalone="no"?>
<svg xmlns="http://www.w3.org/2000/svg" id="Layer_1" data-name="Layer 1" viewBox="0 0 950 950"><title>Artboard 23</title><path d="M64,0a64,64,0,1,0,64,64A64,64,0,0,0,64,0Zm8,65c0,13.45-8.41,23-22,23a24,24,0,1,1,0-48c6.36,0,11.22,2.78,15.32,6.61L59,53a12.32,12.32,0,0,0-9-4,15,15,0,1,0,0,30c9.32,0,12.46-6.54,13-10H49V61H72A26.34,26.34,0,0,1,72,65Zm30,4H94v8H86V69H78V61h8V53h8v8h8Z"/>
	<metadata>
		<rdf:RDF xmlns:rdf="http://www.w3.org/1999/02/22-rdf-syntax-ns#" xmlns:rdfs="http://www.w3.org/2000/01/rdf-schema#" xmlns:dc="http://purl.org/dc/elements/1.1/">
			<rdf:Description about="https://iconscout.com/legal#licenses" dc:title="yumminky-social-media-23" dc:description="yumminky-social-media-23" dc:publisher="Iconscout" dc:date="2017-05-12" dc:format="image/svg+xml" dc:language="en">
				<dc:creator>
					<rdf:Bag>
						<rdf:li>Juraj Sedlák</rdf:li>
					</rdf:Bag>
				</dc:creator>
			</rdf:Description>
		</rdf:RDF>
    </metadata></svg>
