<svg xmlns="http://www.w3.org/2000/svg" width="30" height="30" enable-background="new 0 0 512 512" viewBox="0 0 512 512"><path d="M256.441,471.891c-1.731,0-3.462-0.621-4.834-1.863l-0.17-0.154c-56.678-51.337-115.285-104.421-158.702-156.855
				c-49.436-59.703-73.467-112.27-73.467-160.704c0-61.353,54.825-111.267,122.213-111.267c58.639,0,88.714,26.793,114.96,70.795
				c26.248-44.002,56.333-70.795,115.017-70.795c67.388,0,122.211,49.914,122.211,111.267c0,48.458-24.054,101.05-73.537,160.782
				c-43.461,52.462-102.125,105.571-158.858,156.933C259.902,471.271,258.172,471.891,256.441,471.891z M141.481,55.449
				c-59.446,0-107.81,43.453-107.81,96.864c0,44.942,22.949,94.505,70.157,151.519c41.578,50.214,97.775,101.462,152.613,151.142
				c54.839-49.657,111.019-100.876,152.598-151.066c47.255-57.042,70.227-106.629,70.227-151.594
				c0-53.411-48.363-96.864-107.809-96.864c-56.598,0-82.719,27.266-108.712,74.359c-1.268,2.297-3.683,3.722-6.305,3.722
				s-5.038-1.425-6.305-3.722C224.143,82.715,198.031,55.449,141.481,55.449z"/></svg>