<svg id="Group_103" data-name="Group 103" xmlns="http://www.w3.org/2000/svg" width="173" height="112.461" viewBox="0 0 173 112.461">
  <text id="VOKART" transform="translate(0 103.461)" fill="#5b5b65" font-size="37" font-family="SegoeUI, Segoe UI" letter-spacing="0.2em"><tspan x="0" y="0">VOKART</tspan></text>
  <g id="Group_1" data-name="Group 1" transform="translate(54.368)">
    <path id="Path_1" data-name="Path 1" d="M418.123,252.9l-1.612.941a.375.375,0,0,1-.562-.276,29.531,29.531,0,0,0-.759-3.957c-.617-2.262-4.319-2.262-4.319-2.262l2.674,8.433h4.936l20.7-50.4a15.218,15.218,0,0,1,1.5-2.352c2.134-2.775,7.628-9.774,7.628-9.774H427.118A48.428,48.428,0,0,1,432,199.725s1.7,2.576.771,4.735c0,0-12.466,35.169-13.56,35.015s-1.283-2.622-1.283-2.622a7.829,7.829,0,0,0,0,3.548c.5,1.388,3.222,5.193,2.348,7.558a41.542,41.542,0,0,1-1.6,4.332A1.371,1.371,0,0,1,418.123,252.9Z" transform="translate(-386.061 -193.251)" fill="#be9242"/>
    <path id="Path_2" data-name="Path 2" d="M398.914,299.674s-4.367-5.631-4.5-5.827c-.688-.983-.483-2.728-1.666-6.1a9.582,9.582,0,0,0-9.461-4.524s4.723,4.253,5.063,4.514c1.877,1.446,1.7,6.464,4.138,9.012a2.188,2.188,0,0,0,.6.4Z" transform="translate(-369.991 -245.629)" fill="#be9242"/>
    <path id="Path_3" data-name="Path 3" d="M380.044,242.4s-2.674,7.2,3.7,10.9a10.777,10.777,0,0,1,5.142,6.118s1.851-5.3-1.028-7.352C387.859,252.071,380.044,246.93,380.044,242.4Z" transform="translate(-367.78 -221.883)" fill="#be9242"/>
    <path id="Path_4" data-name="Path 4" d="M396.374,193.251l4.009.005c.525,0,.641.242.514.408-2.4,3.141-4.059,5.533-5.012,6.168-.519.346-.225-3.7-.126-5.993A.615.615,0,0,1,396.374,193.251Z" transform="translate(-377.157 -193.251)" fill="#be9242"/>
    <path id="Path_5" data-name="Path 5" d="M367.841,193.251H351.754a.306.306,0,0,0-.227.512c1.859,2.028,8.616,9.777,11.039,17.793,0,0,.829,1.407,1.27-.524.01-.043-1.283-4.948-.725-7.4a32.842,32.842,0,0,1,4.976-9.9A.307.307,0,0,0,367.841,193.251Z" transform="translate(-351.446 -193.251)" fill="#be9242"/>
    <path id="Path_6" data-name="Path 6" d="M386.848,197.079l-3.784,7.3a8.306,8.306,0,0,0-.617,7.4,31.252,31.252,0,0,0,6.37,9.769c1.754,1.645,4.325,4.01,3.4,13.677a42.355,42.355,0,0,0,2-5.671c.072-.513.533-4.713.533-4.713a5.776,5.776,0,0,0-.229-1.97,29.891,29.891,0,0,0-2.6-6.723c-1.811-3.067-4.885-5.069-5.28-7.978C386.417,206.531,386.848,197.079,386.848,197.079Z" transform="translate(-369.155 -195.481)" fill="#be9242"/>
    <path id="Path_7" data-name="Path 7" d="M412.433,254.1s2.164,4.483,1.076,7.259c-.18.248-3.183,5.477-3.39,6.041a11.521,11.521,0,0,0,.728,8.716,3.586,3.586,0,0,1,.306.74l.576,2.078s-.376-4.782.858-6.787c.977-1.587,1.471-2.981,2.935-5.177a9.811,9.811,0,0,0,1.612-6.225c-.022-.28-.054-.564-.1-.847a3.268,3.268,0,0,0-.47-1.259C415.782,257.4,413.8,254.46,412.433,254.1Z" transform="translate(-385.311 -228.699)" fill="#be9242"/>
    <path id="Path_8" data-name="Path 8" d="M420.9,293.268a19.286,19.286,0,0,0-2.7,4.628c-.592,1.757-.8,2.777,1.35,5.708a8.12,8.12,0,0,1,1.352,7.25s.43.959,2.029-2.935a4.1,4.1,0,0,0,.3-1.814,10.331,10.331,0,0,0-.957-3.769,6.051,6.051,0,0,1-.389-1.075,15.527,15.527,0,0,0-.783-2.1,5.917,5.917,0,0,1-.5-2.3A20.183,20.183,0,0,1,420.9,293.268Z" transform="translate(-390.098 -251.511)" fill="#be9242"/>
  </g>
</svg>
